<?xml version="1.0" encoding="UTF-8"?>
<svg xmlns="http://www.w3.org/2000/svg" xmlns:xlink="http://www.w3.org/1999/xlink" width="70px" height="70px" viewBox="0 0 70 70" version="1.1">
<g id="surface1">
<path style=" stroke:none;fill-rule:nonzero;fill:rgb(0%,0%,0%);fill-opacity:1;" d="M 2.1875 46.667969 C 0.980469 46.667969 0 45.6875 0 44.480469 L 0 38.644531 C 0 37.4375 0.980469 36.457031 2.1875 36.457031 L 17.5 36.457031 C 18.703125 36.457031 19.6875 35.476562 19.6875 34.269531 C 19.6875 33.066406 18.703125 32.082031 17.5 32.082031 L 2.1875 32.082031 C 0.980469 32.082031 0 31.101562 0 29.894531 C 0 28.6875 0.980469 27.707031 2.1875 27.707031 L 17.5 27.707031 C 21.117188 27.707031 24.0625 30.652344 24.0625 34.269531 C 24.0625 37.886719 21.117188 40.832031 17.5 40.832031 L 4.375 40.832031 L 4.375 44.480469 C 4.375 45.6875 3.394531 46.667969 2.1875 46.667969 Z M 29.984375 46.667969 L 21.875 46.667969 C 20.667969 46.667969 19.6875 45.6875 19.6875 44.480469 C 19.6875 43.273438 20.667969 42.292969 21.875 42.292969 L 29.984375 42.292969 C 30.738281 42.292969 31.355469 41.675781 31.355469 40.921875 L 31.355469 33.453125 C 31.355469 30.285156 33.933594 27.707031 37.101562 27.707031 L 45.207031 27.707031 C 46.414062 27.707031 47.394531 28.6875 47.394531 29.894531 C 47.394531 31.101562 46.414062 32.082031 45.207031 32.082031 L 37.101562 32.082031 C 36.34375 32.082031 35.730469 32.699219 35.730469 33.453125 L 35.730469 40.921875 C 35.730469 44.089844 33.152344 46.667969 29.984375 46.667969 Z M 64.894531 46.667969 C 63.6875 46.667969 62.707031 45.6875 62.707031 44.480469 L 62.707031 43.75 L 45.269531 43.75 C 44.285156 43.75 43.421875 43.089844 43.15625 42.140625 C 42.898438 41.191406 43.304688 40.1875 44.152344 39.679688 L 63.777344 28.015625 C 64.449219 27.613281 65.296875 27.601562 65.976562 27.992188 C 66.660156 28.382812 67.082031 29.109375 67.082031 29.894531 L 67.082031 39.375 L 67.8125 39.375 C 69.019531 39.375 70 40.355469 70 41.5625 C 70 42.769531 69.019531 43.75 67.8125 43.75 L 67.082031 43.75 L 67.082031 44.480469 C 67.082031 45.6875 66.101562 46.667969 64.894531 46.667969 Z M 53.230469 39.375 L 62.707031 39.375 L 62.707031 33.738281 Z M 53.230469 39.375 "/>
</g>
</svg>
