<?xml version="1.0" encoding="UTF-8"?>
<svg xmlns="http://www.w3.org/2000/svg" xmlns:xlink="http://www.w3.org/1999/xlink" width="80px" height="80px" viewBox="0 0 80 80" version="1.1">
<g id="surface1">
<path style=" stroke:none;fill-rule:nonzero;fill:rgb(0%,0%,0%);fill-opacity:1;" d="M 22.675781 24.753906 C 22.742188 25.039062 22.996094 25.242188 23.285156 25.242188 C 23.332031 25.242188 23.378906 25.238281 23.425781 25.226562 C 23.761719 25.148438 23.972656 24.816406 23.898438 24.480469 L 23.347656 22.042969 C 23.269531 21.707031 22.9375 21.496094 22.601562 21.574219 C 22.265625 21.648438 22.054688 21.980469 22.128906 22.316406 Z M 19.75 29.890625 L 21 31.140625 C 21.117188 31.261719 21.273438 31.324219 21.441406 31.324219 L 23.523438 31.324219 C 23.691406 31.324219 23.847656 31.261719 23.964844 31.144531 C 24.082031 31.027344 24.148438 30.867188 24.148438 30.699219 L 24.148438 28.199219 C 24.148438 28.035156 24.082031 27.875 23.964844 27.757812 C 23.847656 27.640625 23.691406 27.574219 23.523438 27.574219 L 21.441406 27.574219 C 21.273438 27.574219 21.117188 27.640625 21 27.757812 L 19.75 29.007812 C 19.503906 29.253906 19.503906 29.648438 19.75 29.890625 Z M 21.699219 28.824219 L 22.898438 28.824219 L 22.898438 30.074219 L 21.699219 30.074219 L 21.074219 29.449219 Z M 18.964844 30.671875 C 18.71875 30.4375 18.332031 30.4375 18.082031 30.671875 L 16.832031 31.921875 C 16.714844 32.039062 16.648438 32.199219 16.648438 32.363281 L 16.648438 34.449219 C 16.648438 34.617188 16.714844 34.777344 16.832031 34.894531 C 16.949219 35.011719 17.109375 35.074219 17.273438 35.074219 L 19.773438 35.074219 C 19.941406 35.074219 20.097656 35.011719 20.214844 34.894531 C 20.332031 34.777344 20.398438 34.617188 20.398438 34.449219 L 20.398438 32.363281 C 20.398438 32.199219 20.332031 32.039062 20.214844 31.921875 Z M 19.148438 33.824219 L 17.898438 33.824219 L 17.898438 32.625 L 18.523438 31.996094 L 19.148438 32.625 Z M 18.082031 28.234375 C 18.324219 28.476562 18.722656 28.476562 18.964844 28.234375 L 20.214844 26.980469 C 20.332031 26.863281 20.398438 26.703125 20.398438 26.539062 L 20.398438 24.449219 C 20.398438 24.285156 20.332031 24.125 20.214844 24.007812 C 20.097656 23.890625 19.941406 23.824219 19.773438 23.824219 L 17.273438 23.824219 C 17.109375 23.824219 16.949219 23.890625 16.832031 24.007812 C 16.714844 24.125 16.648438 24.285156 16.648438 24.449219 L 16.648438 26.539062 C 16.648438 26.703125 16.714844 26.863281 16.832031 26.980469 Z M 17.898438 25.074219 L 19.148438 25.074219 L 19.148438 26.28125 L 18.523438 26.90625 L 17.898438 26.28125 Z M 13.523438 31.324219 L 15.609375 31.324219 C 15.773438 31.324219 15.933594 31.261719 16.050781 31.140625 L 17.300781 29.890625 C 17.542969 29.648438 17.542969 29.253906 17.300781 29.007812 L 16.050781 27.757812 C 15.933594 27.640625 15.773438 27.574219 15.609375 27.574219 L 13.523438 27.574219 C 13.359375 27.574219 13.199219 27.640625 13.082031 27.757812 C 12.964844 27.875 12.898438 28.035156 12.898438 28.199219 L 12.898438 30.699219 C 12.898438 30.867188 12.964844 31.027344 13.082031 31.144531 C 13.199219 31.261719 13.359375 31.324219 13.523438 31.324219 Z M 14.148438 28.824219 L 15.347656 28.824219 L 15.972656 29.449219 L 15.347656 30.074219 L 14.148438 30.074219 Z M 61.25 32.265625 C 60.042969 32.265625 59.0625 33.246094 59.0625 34.453125 C 59.0625 35.664062 60.042969 36.640625 61.25 36.640625 C 62.457031 36.640625 63.4375 35.664062 63.4375 34.453125 C 63.4375 33.246094 62.457031 32.269531 61.25 32.265625 Z M 61.25 35.390625 C 60.730469 35.390625 60.3125 34.972656 60.3125 34.453125 C 60.3125 33.9375 60.730469 33.515625 61.25 33.515625 C 61.769531 33.515625 62.1875 33.9375 62.1875 34.453125 C 62.1875 34.972656 61.765625 35.390625 61.25 35.390625 Z M 28.125 35.890625 C 25.707031 35.890625 23.75 37.851562 23.75 40.265625 C 23.75 42.683594 25.707031 44.640625 28.125 44.640625 C 30.542969 44.640625 32.5 42.683594 32.5 40.265625 C 32.496094 37.851562 30.539062 35.894531 28.125 35.890625 Z M 28.125 43.390625 C 26.398438 43.390625 25 41.992188 25 40.265625 C 25 38.542969 26.398438 37.140625 28.125 37.140625 C 29.851562 37.140625 31.25 38.542969 31.25 40.265625 C 31.25 41.992188 29.851562 43.390625 28.125 43.390625 Z M 61.25 27.890625 C 62.457031 27.890625 63.4375 26.914062 63.4375 25.703125 C 63.4375 24.496094 62.457031 23.515625 61.25 23.515625 C 60.042969 23.515625 59.0625 24.496094 59.0625 25.703125 C 59.0625 26.910156 60.042969 27.890625 61.25 27.890625 Z M 61.25 24.765625 C 61.769531 24.765625 62.1875 25.1875 62.1875 25.703125 C 62.1875 26.222656 61.769531 26.640625 61.25 26.640625 C 60.730469 26.640625 60.3125 26.222656 60.3125 25.703125 C 60.3125 25.1875 60.734375 24.769531 61.25 24.765625 Z M 51.875 35.890625 C 49.457031 35.890625 47.5 37.851562 47.5 40.265625 C 47.5 42.683594 49.457031 44.640625 51.875 44.640625 C 54.292969 44.640625 56.25 42.683594 56.25 40.265625 C 56.246094 37.851562 54.289062 35.894531 51.875 35.890625 Z M 51.875 43.390625 C 50.148438 43.390625 48.75 41.992188 48.75 40.265625 C 48.75 38.542969 50.148438 37.140625 51.875 37.140625 C 53.601562 37.140625 55 38.542969 55 40.265625 C 55 41.992188 53.601562 43.390625 51.875 43.390625 Z M 70.394531 27.074219 L 68.335938 21.757812 C 68.097656 21.148438 67.5625 20.707031 66.921875 20.589844 L 66.25 20.46875 L 66.25 18.828125 C 66.25 18.59375 66.117188 18.375 65.90625 18.269531 L 65.554688 18.09375 C 63.230469 16.925781 60.589844 16.53125 58.023438 16.960938 C 57.722656 17.011719 57.5 17.273438 57.5 17.578125 L 57.5 19.089844 C 55.347656 18.8125 53.191406 18.589844 51.03125 18.417969 C 49.921875 18.332031 48.8125 18.253906 47.699219 18.191406 C 46.640625 18.132812 45.582031 18.085938 44.519531 18.054688 C 43.605469 18.023438 42.691406 18.003906 41.773438 17.992188 C 40.589844 17.976562 39.410156 17.976562 38.226562 17.992188 C 37.308594 18.003906 36.394531 18.023438 35.480469 18.054688 C 34.417969 18.089844 33.359375 18.132812 32.300781 18.191406 C 31.1875 18.253906 30.078125 18.332031 28.96875 18.417969 C 26.808594 18.59375 24.652344 18.816406 22.5 19.089844 L 22.5 17.578125 C 22.5 17.273438 22.277344 17.011719 21.976562 16.960938 C 19.410156 16.527344 16.773438 16.925781 14.445312 18.09375 L 14.097656 18.269531 C 13.882812 18.375 13.75 18.59375 13.75 18.828125 L 13.75 20.46875 L 13.078125 20.589844 C 12.4375 20.707031 11.902344 21.148438 11.664062 21.757812 L 9.605469 27.074219 C 6.140625 36.003906 4.367188 45.5 4.375 55.078125 C 4.363281 58.359375 6.339844 61.320312 9.375 62.566406 L 9.382812 62.570312 C 10.363281 62.984375 11.417969 63.203125 12.484375 63.203125 C 12.769531 63.203125 13.050781 63.191406 13.332031 63.160156 C 14.679688 63.039062 15.78125 62.042969 16.042969 60.71875 C 16.890625 56.457031 18.570312 52.40625 20.984375 48.792969 L 21.28125 48.347656 C 21.859375 47.476562 22.835938 46.953125 23.882812 46.953125 L 25.179688 46.953125 C 27.054688 47.789062 29.195312 47.789062 31.070312 46.953125 L 48.929688 46.953125 C 50.804688 47.789062 52.945312 47.789062 54.820312 46.953125 L 56.117188 46.953125 C 57.164062 46.953125 58.140625 47.476562 58.71875 48.347656 L 59.277344 49.1875 C 61.519531 52.539062 63.074219 56.300781 63.863281 60.257812 C 64.21875 61.972656 65.726562 63.203125 67.476562 63.203125 L 67.5 63.203125 C 71.988281 63.203125 75.625 59.566406 75.625 55.078125 C 75.632812 45.5 73.859375 36.003906 70.394531 27.074219 Z M 58.75 18.121094 C 60.894531 17.863281 63.066406 18.242188 64.996094 19.214844 L 65 20.238281 L 64.710938 20.1875 C 64.496094 20.148438 64.28125 20.121094 64.066406 20.085938 C 62.988281 19.898438 61.894531 19.726562 60.785156 19.5625 C 60.105469 19.460938 59.429688 19.332031 58.75 19.238281 Z M 52.03125 19.75 L 50.167969 29.273438 C 49.996094 30.15625 49.226562 30.789062 48.328125 30.789062 L 31.667969 30.789062 C 30.773438 30.789062 30.003906 30.152344 29.828125 29.273438 L 27.96875 19.75 C 35.972656 19.042969 44.027344 19.042969 52.03125 19.75 Z M 15 19.214844 L 15.003906 19.214844 C 16.933594 18.246094 19.105469 17.863281 21.25 18.121094 L 21.25 19.242188 C 20.574219 19.332031 19.902344 19.457031 19.230469 19.5625 C 18.105469 19.726562 16.996094 19.902344 15.910156 20.089844 C 15.703125 20.125 15.496094 20.148438 15.292969 20.1875 L 15 20.238281 Z M 9.671875 61.347656 C 7.207031 60.234375 5.625 57.78125 5.625 55.078125 C 5.617188 45.65625 7.363281 36.3125 10.773438 27.523438 L 12.832031 22.207031 C 12.910156 22.007812 13.085938 21.859375 13.300781 21.820312 L 14.949219 21.519531 C 15.4375 21.433594 15.949219 21.355469 16.445312 21.269531 C 17.40625 21.101562 18.367188 20.957031 19.328125 20.8125 C 20.195312 20.683594 21.066406 20.554688 21.953125 20.441406 C 22.007812 20.429688 22.058594 20.414062 22.105469 20.390625 C 22.78125 20.300781 23.460938 20.242188 24.136719 20.164062 L 25.964844 28.242188 C 26.402344 30.125 25.835938 32.097656 24.472656 33.464844 C 23.851562 34.082031 23.265625 34.730469 22.6875 35.394531 C 22.570312 35.523438 22.457031 35.660156 22.351562 35.796875 C 19.265625 39.433594 16.902344 43.628906 15.394531 48.15625 L 11.832031 58.859375 C 11.464844 59.941406 10.6875 60.832031 9.671875 61.347656 Z M 20.242188 47.652344 L 19.945312 48.097656 C 17.441406 51.847656 15.699219 56.054688 14.820312 60.476562 C 14.660156 61.257812 14.007812 61.847656 13.210938 61.917969 C 12.539062 61.980469 11.867188 61.949219 11.207031 61.824219 C 12.046875 61.160156 12.671875 60.265625 13.019531 59.253906 L 16.582031 48.554688 C 17.472656 45.890625 18.667969 43.335938 20.144531 40.945312 C 20.363281 40.589844 20.601562 40.25 20.832031 39.902344 C 20.824219 40.023438 20.8125 40.144531 20.8125 40.265625 C 20.8125 42.378906 21.730469 44.390625 23.328125 45.773438 C 22.074219 45.921875 20.949219 46.605469 20.242188 47.652344 Z M 30.648438 45.761719 C 29.050781 46.515625 27.199219 46.515625 25.601562 45.761719 C 23.007812 44.574219 21.59375 41.742188 22.203125 38.957031 C 22.808594 36.171875 25.273438 34.1875 28.125 34.1875 C 30.976562 34.1875 33.441406 36.171875 34.046875 38.957031 C 34.65625 41.742188 33.242188 44.574219 30.648438 45.761719 Z M 32.996094 45.703125 C 35.527344 43.457031 36.179688 39.765625 34.578125 36.789062 C 32.972656 33.8125 29.53125 32.328125 26.261719 33.203125 C 27.261719 31.652344 27.597656 29.765625 27.183594 27.964844 L 25.386719 20.019531 C 25.832031 19.972656 26.273438 19.914062 26.71875 19.871094 L 28.601562 29.515625 C 28.890625 30.980469 30.175781 32.039062 31.667969 32.039062 L 48.328125 32.039062 C 49.824219 32.039062 51.109375 30.980469 51.398438 29.515625 L 53.28125 19.871094 C 53.726562 19.914062 54.171875 19.972656 54.613281 20.019531 L 52.816406 27.964844 C 52.40625 29.765625 52.738281 31.652344 53.738281 33.203125 C 50.472656 32.335938 47.039062 33.820312 45.4375 36.796875 C 43.832031 39.769531 44.480469 43.457031 47.003906 45.703125 Z M 54.394531 45.761719 C 52.800781 46.515625 50.949219 46.515625 49.355469 45.761719 C 46.761719 44.578125 45.34375 41.746094 45.953125 38.960938 C 46.558594 36.175781 49.023438 34.1875 51.875 34.1875 C 54.726562 34.1875 57.191406 36.175781 57.796875 38.960938 C 58.40625 41.746094 56.988281 44.578125 54.394531 45.761719 Z M 67.5 61.953125 L 67.480469 61.953125 C 66.324219 61.953125 65.324219 61.144531 65.089844 60.011719 C 64.269531 55.894531 62.648438 51.980469 60.320312 48.492188 L 59.757812 47.652344 C 59.050781 46.609375 57.925781 45.921875 56.671875 45.773438 C 58.269531 44.390625 59.1875 42.378906 59.1875 40.265625 C 59.1875 40.144531 59.175781 40.023438 59.167969 39.902344 C 59.398438 40.25 59.636719 40.589844 59.855469 40.945312 C 61.332031 43.335938 62.527344 45.886719 63.417969 48.550781 L 66.980469 59.25 C 67.328125 60.265625 67.957031 61.160156 68.796875 61.828125 C 68.367188 61.910156 67.933594 61.953125 67.5 61.953125 Z M 72.355469 59.949219 C 71.761719 60.53125 71.070312 61.003906 70.3125 61.339844 C 69.300781 60.820312 68.53125 59.933594 68.167969 58.855469 L 64.605469 48.15625 C 63.097656 43.625 60.730469 39.429688 57.640625 35.789062 C 57.539062 35.65625 57.433594 35.53125 57.320312 35.40625 C 56.742188 34.738281 56.152344 34.082031 55.53125 33.464844 C 54.164062 32.097656 53.597656 30.125 54.035156 28.242188 L 55.863281 20.164062 C 56.539062 20.242188 57.21875 20.304688 57.894531 20.390625 C 57.941406 20.414062 57.992188 20.429688 58.046875 20.441406 C 58.925781 20.554688 59.792969 20.683594 60.660156 20.808594 C 61.625 20.957031 62.589844 21.101562 63.554688 21.269531 C 64.054688 21.355469 64.570312 21.433594 65.0625 21.523438 L 66.699219 21.820312 C 66.914062 21.859375 67.089844 22.007812 67.171875 22.207031 L 69.230469 27.523438 C 72.636719 36.3125 74.382812 45.65625 74.375 55.078125 C 74.378906 56.90625 73.652344 58.660156 72.355469 59.949219 Z M 43.125 33.203125 C 42.78125 33.203125 42.5 33.484375 42.5 33.828125 C 42.5 34.175781 42.78125 34.453125 43.125 34.453125 C 43.46875 34.453125 43.75 34.175781 43.75 33.828125 C 43.75 33.484375 43.46875 33.203125 43.125 33.203125 Z M 56.875 27.890625 C 55.667969 27.890625 54.6875 28.871094 54.6875 30.078125 C 54.6875 31.289062 55.667969 32.265625 56.875 32.265625 C 58.082031 32.265625 59.0625 31.289062 59.0625 30.078125 C 59.0625 28.871094 58.082031 27.894531 56.875 27.890625 Z M 56.875 31.015625 C 56.355469 31.015625 55.9375 30.597656 55.9375 30.078125 C 55.9375 29.5625 56.355469 29.140625 56.875 29.140625 C 57.394531 29.140625 57.8125 29.5625 57.8125 30.078125 C 57.8125 30.597656 57.390625 31.015625 56.875 31.015625 Z M 65.625 27.890625 C 64.417969 27.890625 63.4375 28.871094 63.4375 30.078125 C 63.4375 31.289062 64.417969 32.265625 65.625 32.265625 C 66.832031 32.265625 67.8125 31.289062 67.8125 30.078125 C 67.8125 28.871094 66.832031 27.894531 65.625 27.890625 Z M 65.625 31.015625 C 65.105469 31.015625 64.6875 30.597656 64.6875 30.078125 C 64.6875 29.5625 65.105469 29.140625 65.625 29.140625 C 66.144531 29.140625 66.5625 29.5625 66.5625 30.078125 C 66.5625 30.597656 66.140625 31.015625 65.625 31.015625 Z M 56.574219 25.226562 C 56.621094 25.238281 56.667969 25.242188 56.710938 25.242188 C 57.003906 25.242188 57.257812 25.039062 57.320312 24.753906 L 57.871094 22.316406 C 57.949219 21.980469 57.734375 21.648438 57.398438 21.570312 C 57.0625 21.496094 56.730469 21.707031 56.652344 22.042969 L 56.101562 24.480469 C 56.066406 24.640625 56.097656 24.808594 56.183594 24.949219 C 56.273438 25.089844 56.414062 25.1875 56.574219 25.226562 Z M 38.125 34.453125 C 38.46875 34.453125 38.75 34.175781 38.75 33.828125 C 38.75 33.484375 38.46875 33.203125 38.125 33.203125 C 37.78125 33.203125 37.5 33.484375 37.5 33.828125 C 37.5 34.175781 37.78125 34.453125 38.125 34.453125 Z M 41.875 35.078125 C 41.53125 35.078125 41.25 35.359375 41.25 35.703125 C 41.25 36.050781 41.53125 36.328125 41.875 36.328125 C 42.21875 36.328125 42.5 36.050781 42.5 35.703125 C 42.5 35.359375 42.21875 35.078125 41.875 35.078125 Z M 40.625 34.453125 C 40.96875 34.453125 41.25 34.175781 41.25 33.828125 C 41.25 33.484375 40.96875 33.203125 40.625 33.203125 C 40.28125 33.203125 40 33.484375 40 33.828125 C 40 34.175781 40.28125 34.453125 40.625 34.453125 Z M 39.375 36.328125 C 39.71875 36.328125 40 36.050781 40 35.703125 C 40 35.359375 39.71875 35.078125 39.375 35.078125 C 39.03125 35.078125 38.75 35.359375 38.75 35.703125 C 38.75 36.050781 39.03125 36.328125 39.375 36.328125 Z M 35.625 33.203125 C 35.28125 33.203125 35 33.484375 35 33.828125 C 35 34.175781 35.28125 34.453125 35.625 34.453125 C 35.96875 34.453125 36.25 34.175781 36.25 33.828125 C 36.25 33.484375 35.96875 33.203125 35.625 33.203125 Z M 40.625 43.203125 L 38.125 43.203125 C 37.78125 43.203125 37.5 43.484375 37.5 43.828125 C 37.5 44.175781 37.78125 44.453125 38.125 44.453125 L 40.625 44.453125 C 40.96875 44.453125 41.25 44.175781 41.25 43.828125 C 41.25 43.484375 40.96875 43.203125 40.625 43.203125 Z M 36.875 35.078125 C 36.53125 35.078125 36.25 35.359375 36.25 35.703125 C 36.25 36.050781 36.53125 36.328125 36.875 36.328125 C 37.21875 36.328125 37.5 36.050781 37.5 35.703125 C 37.5 35.359375 37.21875 35.078125 36.875 35.078125 Z M 36.875 35.078125 "/>
</g>
</svg>
